<?xml version='1.0' encoding='UTF-8'?>
<!DOCTYPE svg PUBLIC "-//W3C//DTD SVG 1.0//EN" "http://www.w3.org/TR/2001/REC-SVG-20010904/DTD/svg10.dtd">
<svg viewBox="0 0 1376 704" xmlns="http://www.w3.org/2000/svg" xmlns:inkspace="http://www.inkscape.org/namespaces/inkscape" xmlns:xlink="http://www.w3.org/1999/xlink">
  <defs id="defs_block">
    <filter height="1.504" id="filter_blur" inkspace:collect="always" width="1.1575" x="-0.07875" y="-0.252">
      <feGaussianBlur id="feGaussianBlur3780" inkspace:collect="always" stdDeviation="4.2" />
    </filter>
  </defs>
  <title>blockdiag</title>
  <desc>seqdiag {
    edge_length = 140;
    span_height = 5;
    None -&gt; None_Beta [label = "Beta"];
    None &lt;-- None_Beta;
    None -&gt; None_Foxtrott [label = "Foxtrott"];
    None &lt;-- None_Foxtrott;
    None -&gt; None_alpha [label = "alpha"];
    None &lt;-- None_alpha;
    None -&gt; None_main [label = "main"];
     None_main -&gt; None_alpha [label = "alpha"];
     None_main &lt;-- None_alpha;
     None_main -&gt; Class_Beta_id_0x7f30929fe390 [label = "__init__"];
     None_main &lt;-- Class_Beta_id_0x7f30929fe390;
     None_main -&gt; Class_Beta_id_0x7f30929fe390 [label = "charlie"];
      Class_Beta_id_0x7f30929fe390 -&gt; None_delta [label = "delta"];
      Class_Beta_id_0x7f30929fe390 &lt;-- None_delta;
     None_main &lt;-- Class_Beta_id_0x7f30929fe390;
     None_main -&gt; Class_Beta_id_0x7f30929fe320 [label = "__init__"];
     None_main &lt;-- Class_Beta_id_0x7f30929fe320;
     None_main -&gt; Class_Beta_id_0x7f30929fe320 [label = "charlie"];
      Class_Beta_id_0x7f30929fe320 -&gt; None_delta [label = "delta"];
      Class_Beta_id_0x7f30929fe320 &lt;-- None_delta;
     None_main &lt;-- Class_Beta_id_0x7f30929fe320;
     None_main -&gt; Class_Foxtrott_id_0x7f30929fe438 [label = "__init__"];
     None_main &lt;-- Class_Foxtrott_id_0x7f30929fe438;
     None_main -&gt; Class_Foxtrott_id_0x7f30929fe438 [label = "charlie"];
      Class_Foxtrott_id_0x7f30929fe438 -&gt; None_delta [label = "delta"];
      Class_Foxtrott_id_0x7f30929fe438 &lt;-- None_delta;
     None_main &lt;-- Class_Foxtrott_id_0x7f30929fe438;
    None &lt;-- None_main;
}
</desc>
  <rect fill="rgb(0,0,0)" height="628" style="filter:url(#filter_blur);opacity:0.7;fill-opacity:1" width="8" x="127" y="71" />
  <rect fill="rgb(0,0,0)" height="15" style="filter:url(#filter_blur);opacity:0.7;fill-opacity:1" width="8" x="267" y="71" />
  <rect fill="rgb(0,0,0)" height="15" style="filter:url(#filter_blur);opacity:0.7;fill-opacity:1" width="8" x="407" y="116" />
  <rect fill="rgb(0,0,0)" height="15" style="filter:url(#filter_blur);opacity:0.7;fill-opacity:1" width="8" x="547" y="161" />
  <rect fill="rgb(0,0,0)" height="15" style="filter:url(#filter_blur);opacity:0.7;fill-opacity:1" width="8" x="547" y="236" />
  <rect fill="rgb(0,0,0)" height="465" style="filter:url(#filter_blur);opacity:0.7;fill-opacity:1" width="8" x="687" y="206" />
  <rect fill="rgb(0,0,0)" height="15" style="filter:url(#filter_blur);opacity:0.7;fill-opacity:1" width="8" x="827" y="281" />
  <rect fill="rgb(0,0,0)" height="60" style="filter:url(#filter_blur);opacity:0.7;fill-opacity:1" width="8" x="827" y="326" />
  <rect fill="rgb(0,0,0)" height="15" style="filter:url(#filter_blur);opacity:0.7;fill-opacity:1" width="8" x="967" y="356" />
  <rect fill="rgb(0,0,0)" height="15" style="filter:url(#filter_blur);opacity:0.7;fill-opacity:1" width="8" x="967" y="491" />
  <rect fill="rgb(0,0,0)" height="15" style="filter:url(#filter_blur);opacity:0.7;fill-opacity:1" width="8" x="967" y="626" />
  <rect fill="rgb(0,0,0)" height="15" style="filter:url(#filter_blur);opacity:0.7;fill-opacity:1" width="8" x="1107" y="416" />
  <rect fill="rgb(0,0,0)" height="60" style="filter:url(#filter_blur);opacity:0.7;fill-opacity:1" width="8" x="1107" y="461" />
  <rect fill="rgb(0,0,0)" height="15" style="filter:url(#filter_blur);opacity:0.7;fill-opacity:1" width="8" x="1247" y="551" />
  <rect fill="rgb(0,0,0)" height="60" style="filter:url(#filter_blur);opacity:0.7;fill-opacity:1" width="8" x="1247" y="596" />
  <rect fill="rgb(0,0,0)" height="40" stroke="rgb(0,0,0)" style="filter:url(#filter_blur);opacity:0.7;fill-opacity:1" width="128" x="67" y="11" />
  <rect fill="rgb(0,0,0)" height="40" stroke="rgb(0,0,0)" style="filter:url(#filter_blur);opacity:0.7;fill-opacity:1" width="128" x="207" y="11" />
  <rect fill="rgb(0,0,0)" height="40" stroke="rgb(0,0,0)" style="filter:url(#filter_blur);opacity:0.7;fill-opacity:1" width="128" x="347" y="11" />
  <rect fill="rgb(0,0,0)" height="40" stroke="rgb(0,0,0)" style="filter:url(#filter_blur);opacity:0.7;fill-opacity:1" width="128" x="487" y="11" />
  <rect fill="rgb(0,0,0)" height="40" stroke="rgb(0,0,0)" style="filter:url(#filter_blur);opacity:0.7;fill-opacity:1" width="128" x="627" y="11" />
  <rect fill="rgb(0,0,0)" height="40" stroke="rgb(0,0,0)" style="filter:url(#filter_blur);opacity:0.7;fill-opacity:1" width="128" x="767" y="11" />
  <rect fill="rgb(0,0,0)" height="40" stroke="rgb(0,0,0)" style="filter:url(#filter_blur);opacity:0.7;fill-opacity:1" width="128" x="907" y="11" />
  <rect fill="rgb(0,0,0)" height="40" stroke="rgb(0,0,0)" style="filter:url(#filter_blur);opacity:0.7;fill-opacity:1" width="128" x="1047" y="11" />
  <rect fill="rgb(0,0,0)" height="40" stroke="rgb(0,0,0)" style="filter:url(#filter_blur);opacity:0.7;fill-opacity:1" width="128" x="1187" y="11" />
  <path d="M 128 45 L 128 709" fill="none" stroke="rgb(0,0,0)" stroke-dasharray="8 4" />
  <rect fill="moccasin" height="628" stroke="rgb(0,0,0)" width="8" x="124" y="65" />
  <path d="M 268 45 L 268 709" fill="none" stroke="rgb(0,0,0)" stroke-dasharray="8 4" />
  <rect fill="moccasin" height="15" stroke="rgb(0,0,0)" width="8" x="264" y="65" />
  <path d="M 408 45 L 408 709" fill="none" stroke="rgb(0,0,0)" stroke-dasharray="8 4" />
  <rect fill="moccasin" height="15" stroke="rgb(0,0,0)" width="8" x="404" y="110" />
  <path d="M 548 45 L 548 709" fill="none" stroke="rgb(0,0,0)" stroke-dasharray="8 4" />
  <rect fill="moccasin" height="15" stroke="rgb(0,0,0)" width="8" x="544" y="155" />
  <rect fill="moccasin" height="15" stroke="rgb(0,0,0)" width="8" x="544" y="230" />
  <path d="M 688 45 L 688 709" fill="none" stroke="rgb(0,0,0)" stroke-dasharray="8 4" />
  <rect fill="moccasin" height="465" stroke="rgb(0,0,0)" width="8" x="684" y="200" />
  <path d="M 828 45 L 828 709" fill="none" stroke="rgb(0,0,0)" stroke-dasharray="8 4" />
  <rect fill="moccasin" height="15" stroke="rgb(0,0,0)" width="8" x="824" y="275" />
  <rect fill="moccasin" height="60" stroke="rgb(0,0,0)" width="8" x="824" y="320" />
  <path d="M 968 45 L 968 709" fill="none" stroke="rgb(0,0,0)" stroke-dasharray="8 4" />
  <rect fill="moccasin" height="15" stroke="rgb(0,0,0)" width="8" x="964" y="350" />
  <rect fill="moccasin" height="15" stroke="rgb(0,0,0)" width="8" x="964" y="485" />
  <rect fill="moccasin" height="15" stroke="rgb(0,0,0)" width="8" x="964" y="620" />
  <path d="M 1108 45 L 1108 709" fill="none" stroke="rgb(0,0,0)" stroke-dasharray="8 4" />
  <rect fill="moccasin" height="15" stroke="rgb(0,0,0)" width="8" x="1104" y="410" />
  <rect fill="moccasin" height="60" stroke="rgb(0,0,0)" width="8" x="1104" y="455" />
  <path d="M 1248 45 L 1248 709" fill="none" stroke="rgb(0,0,0)" stroke-dasharray="8 4" />
  <rect fill="moccasin" height="15" stroke="rgb(0,0,0)" width="8" x="1244" y="545" />
  <rect fill="moccasin" height="60" stroke="rgb(0,0,0)" width="8" x="1244" y="590" />
  <rect fill="rgb(255,255,255)" height="40" stroke="rgb(0,0,0)" width="128" x="64" y="5" />
  <text fill="rgb(0,0,0)" font-family="sans-serif" font-size="11" font-style="normal" font-weight="normal" text-anchor="middle" textLength="24" x="128.0" y="31">None</text>
  <rect fill="rgb(255,255,255)" height="40" stroke="rgb(0,0,0)" width="128" x="204" y="5" />
  <text fill="rgb(0,0,0)" font-family="sans-serif" font-size="11" font-style="normal" font-weight="normal" text-anchor="middle" textLength="54" x="268.0" y="31">None_Beta</text>
  <rect fill="rgb(255,255,255)" height="40" stroke="rgb(0,0,0)" width="128" x="344" y="5" />
  <text fill="rgb(0,0,0)" font-family="sans-serif" font-size="11" font-style="normal" font-weight="normal" text-anchor="middle" textLength="78" x="408.0" y="31">None_Foxtrott</text>
  <rect fill="rgb(255,255,255)" height="40" stroke="rgb(0,0,0)" width="128" x="484" y="5" />
  <text fill="rgb(0,0,0)" font-family="sans-serif" font-size="11" font-style="normal" font-weight="normal" text-anchor="middle" textLength="60" x="548.0" y="31">None_alpha</text>
  <rect fill="rgb(255,255,255)" height="40" stroke="rgb(0,0,0)" width="128" x="624" y="5" />
  <text fill="rgb(0,0,0)" font-family="sans-serif" font-size="11" font-style="normal" font-weight="normal" text-anchor="middle" textLength="54" x="688.0" y="31">None_main</text>
  <rect fill="rgb(255,255,255)" height="40" stroke="rgb(0,0,0)" width="128" x="764" y="5" />
  <text fill="rgb(0,0,0)" font-family="sans-serif" font-size="11" font-style="normal" font-weight="normal" text-anchor="middle" textLength="126" x="828.0" y="24">Class_Beta_id_0x7f309</text>
  <text fill="rgb(0,0,0)" font-family="sans-serif" font-size="11" font-style="normal" font-weight="normal" text-anchor="middle" textLength="42" x="828.0" y="37">29fe390</text>
  <rect fill="rgb(255,255,255)" height="40" stroke="rgb(0,0,0)" width="128" x="904" y="5" />
  <text fill="rgb(0,0,0)" font-family="sans-serif" font-size="11" font-style="normal" font-weight="normal" text-anchor="middle" textLength="60" x="968.0" y="31">None_delta</text>
  <rect fill="rgb(255,255,255)" height="40" stroke="rgb(0,0,0)" width="128" x="1044" y="5" />
  <text fill="rgb(0,0,0)" font-family="sans-serif" font-size="11" font-style="normal" font-weight="normal" text-anchor="middle" textLength="126" x="1108.0" y="24">Class_Beta_id_0x7f309</text>
  <text fill="rgb(0,0,0)" font-family="sans-serif" font-size="11" font-style="normal" font-weight="normal" text-anchor="middle" textLength="42" x="1108.0" y="37">29fe320</text>
  <rect fill="rgb(255,255,255)" height="40" stroke="rgb(0,0,0)" width="128" x="1184" y="5" />
  <text fill="rgb(0,0,0)" font-family="sans-serif" font-size="11" font-style="normal" font-weight="normal" text-anchor="middle" textLength="126" x="1248.0" y="24">Class_Foxtrott_id_0x7</text>
  <text fill="rgb(0,0,0)" font-family="sans-serif" font-size="11" font-style="normal" font-weight="normal" text-anchor="middle" textLength="66" x="1248.0" y="37">f30929fe438</text>
  <path d="M 136 65 L 260 65" fill="none" stroke="rgb(0,0,0)" />
  <polygon fill="rgb(0,0,0)" points="252,61 260,65 252,69" stroke="rgb(0,0,0)" />
  <path d="M 136 80 L 260 80" fill="none" stroke="rgb(0,0,0)" stroke-dasharray="4" />
  <polygon fill="rgb(0,0,0)" points="144,76 136,80 144,84" stroke="rgb(0,0,0)" />
  <path d="M 136 110 L 400 110" fill="none" stroke="rgb(0,0,0)" />
  <polygon fill="rgb(0,0,0)" points="392,106 400,110 392,114" stroke="rgb(0,0,0)" />
  <path d="M 136 125 L 400 125" fill="none" stroke="rgb(0,0,0)" stroke-dasharray="4" />
  <polygon fill="rgb(0,0,0)" points="144,121 136,125 144,129" stroke="rgb(0,0,0)" />
  <path d="M 136 155 L 540 155" fill="none" stroke="rgb(0,0,0)" />
  <polygon fill="rgb(0,0,0)" points="532,151 540,155 532,159" stroke="rgb(0,0,0)" />
  <path d="M 136 170 L 540 170" fill="none" stroke="rgb(0,0,0)" stroke-dasharray="4" />
  <polygon fill="rgb(0,0,0)" points="144,166 136,170 144,174" stroke="rgb(0,0,0)" />
  <path d="M 136 200 L 680 200" fill="none" stroke="rgb(0,0,0)" />
  <polygon fill="rgb(0,0,0)" points="672,196 680,200 672,204" stroke="rgb(0,0,0)" />
  <path d="M 556 230 L 680 230" fill="none" stroke="rgb(0,0,0)" />
  <polygon fill="rgb(0,0,0)" points="564,226 556,230 564,234" stroke="rgb(0,0,0)" />
  <path d="M 556 245 L 680 245" fill="none" stroke="rgb(0,0,0)" stroke-dasharray="4" />
  <polygon fill="rgb(0,0,0)" points="672,241 680,245 672,249" stroke="rgb(0,0,0)" />
  <path d="M 696 275 L 820 275" fill="none" stroke="rgb(0,0,0)" />
  <polygon fill="rgb(0,0,0)" points="812,271 820,275 812,279" stroke="rgb(0,0,0)" />
  <path d="M 696 290 L 820 290" fill="none" stroke="rgb(0,0,0)" stroke-dasharray="4" />
  <polygon fill="rgb(0,0,0)" points="704,286 696,290 704,294" stroke="rgb(0,0,0)" />
  <path d="M 696 320 L 820 320" fill="none" stroke="rgb(0,0,0)" />
  <polygon fill="rgb(0,0,0)" points="812,316 820,320 812,324" stroke="rgb(0,0,0)" />
  <path d="M 836 350 L 960 350" fill="none" stroke="rgb(0,0,0)" />
  <polygon fill="rgb(0,0,0)" points="952,346 960,350 952,354" stroke="rgb(0,0,0)" />
  <path d="M 836 365 L 960 365" fill="none" stroke="rgb(0,0,0)" stroke-dasharray="4" />
  <polygon fill="rgb(0,0,0)" points="844,361 836,365 844,369" stroke="rgb(0,0,0)" />
  <path d="M 696 380 L 820 380" fill="none" stroke="rgb(0,0,0)" stroke-dasharray="4" />
  <polygon fill="rgb(0,0,0)" points="704,376 696,380 704,384" stroke="rgb(0,0,0)" />
  <path d="M 696 410 L 1100 410" fill="none" stroke="rgb(0,0,0)" />
  <polygon fill="rgb(0,0,0)" points="1092,406 1100,410 1092,414" stroke="rgb(0,0,0)" />
  <path d="M 696 425 L 1100 425" fill="none" stroke="rgb(0,0,0)" stroke-dasharray="4" />
  <polygon fill="rgb(0,0,0)" points="704,421 696,425 704,429" stroke="rgb(0,0,0)" />
  <path d="M 696 455 L 1100 455" fill="none" stroke="rgb(0,0,0)" />
  <polygon fill="rgb(0,0,0)" points="1092,451 1100,455 1092,459" stroke="rgb(0,0,0)" />
  <path d="M 976 485 L 1100 485" fill="none" stroke="rgb(0,0,0)" />
  <polygon fill="rgb(0,0,0)" points="984,481 976,485 984,489" stroke="rgb(0,0,0)" />
  <path d="M 976 500 L 1100 500" fill="none" stroke="rgb(0,0,0)" stroke-dasharray="4" />
  <polygon fill="rgb(0,0,0)" points="1092,496 1100,500 1092,504" stroke="rgb(0,0,0)" />
  <path d="M 696 515 L 1100 515" fill="none" stroke="rgb(0,0,0)" stroke-dasharray="4" />
  <polygon fill="rgb(0,0,0)" points="704,511 696,515 704,519" stroke="rgb(0,0,0)" />
  <path d="M 696 545 L 1240 545" fill="none" stroke="rgb(0,0,0)" />
  <polygon fill="rgb(0,0,0)" points="1232,541 1240,545 1232,549" stroke="rgb(0,0,0)" />
  <path d="M 696 560 L 1240 560" fill="none" stroke="rgb(0,0,0)" stroke-dasharray="4" />
  <polygon fill="rgb(0,0,0)" points="704,556 696,560 704,564" stroke="rgb(0,0,0)" />
  <path d="M 696 590 L 1240 590" fill="none" stroke="rgb(0,0,0)" />
  <polygon fill="rgb(0,0,0)" points="1232,586 1240,590 1232,594" stroke="rgb(0,0,0)" />
  <path d="M 976 620 L 1240 620" fill="none" stroke="rgb(0,0,0)" />
  <polygon fill="rgb(0,0,0)" points="984,616 976,620 984,624" stroke="rgb(0,0,0)" />
  <path d="M 976 635 L 1240 635" fill="none" stroke="rgb(0,0,0)" stroke-dasharray="4" />
  <polygon fill="rgb(0,0,0)" points="1232,631 1240,635 1232,639" stroke="rgb(0,0,0)" />
  <path d="M 696 650 L 1240 650" fill="none" stroke="rgb(0,0,0)" stroke-dasharray="4" />
  <polygon fill="rgb(0,0,0)" points="704,646 696,650 704,654" stroke="rgb(0,0,0)" />
  <path d="M 136 665 L 680 665" fill="none" stroke="rgb(0,0,0)" stroke-dasharray="4" />
  <polygon fill="rgb(0,0,0)" points="144,661 136,665 144,669" stroke="rgb(0,0,0)" />
  <text fill="rgb(0,0,0)" font-family="sans-serif" font-size="11" font-style="normal" font-weight="normal" text-anchor="middle" textLength="24" x="152.0" y="63">Beta</text>
  <text fill="rgb(0,0,0)" font-family="sans-serif" font-size="11" font-style="normal" font-weight="normal" text-anchor="middle" textLength="48" x="164.0" y="108">Foxtrott</text>
  <text fill="rgb(0,0,0)" font-family="sans-serif" font-size="11" font-style="normal" font-weight="normal" text-anchor="middle" textLength="30" x="155.0" y="153">alpha</text>
  <text fill="rgb(0,0,0)" font-family="sans-serif" font-size="11" font-style="normal" font-weight="normal" text-anchor="middle" textLength="24" x="152.0" y="198">main</text>
  <text fill="rgb(0,0,0)" font-family="sans-serif" font-size="11" font-style="normal" font-weight="normal" text-anchor="middle" textLength="30" x="665.0" y="228">alpha</text>
  <text fill="rgb(0,0,0)" font-family="sans-serif" font-size="11" font-style="normal" font-weight="normal" text-anchor="middle" textLength="48" x="724.0" y="273">__init__</text>
  <text fill="rgb(0,0,0)" font-family="sans-serif" font-size="11" font-style="normal" font-weight="normal" text-anchor="middle" textLength="42" x="721.0" y="318">charlie</text>
  <text fill="rgb(0,0,0)" font-family="sans-serif" font-size="11" font-style="normal" font-weight="normal" text-anchor="middle" textLength="30" x="855.0" y="348">delta</text>
  <text fill="rgb(0,0,0)" font-family="sans-serif" font-size="11" font-style="normal" font-weight="normal" text-anchor="middle" textLength="48" x="724.0" y="408">__init__</text>
  <text fill="rgb(0,0,0)" font-family="sans-serif" font-size="11" font-style="normal" font-weight="normal" text-anchor="middle" textLength="42" x="721.0" y="453">charlie</text>
  <text fill="rgb(0,0,0)" font-family="sans-serif" font-size="11" font-style="normal" font-weight="normal" text-anchor="middle" textLength="30" x="1085.0" y="483">delta</text>
  <text fill="rgb(0,0,0)" font-family="sans-serif" font-size="11" font-style="normal" font-weight="normal" text-anchor="middle" textLength="48" x="724.0" y="543">__init__</text>
  <text fill="rgb(0,0,0)" font-family="sans-serif" font-size="11" font-style="normal" font-weight="normal" text-anchor="middle" textLength="42" x="721.0" y="588">charlie</text>
  <text fill="rgb(0,0,0)" font-family="sans-serif" font-size="11" font-style="normal" font-weight="normal" text-anchor="middle" textLength="30" x="1225.0" y="618">delta</text>
</svg>
